# xmcd
#
# Track frame offsets:
#	150
#	12047
#	25832
#	39605
#	52972
#	62257
#	77242
#	90010
#	102160
#	116785
#
# Disc length: 1721
#
# Revision: 2
# Processed by: cddbd v1.5.1PL0 Copyright (c) Steve Scherf et al.
# Submitted via: CDmax 1.4
# Normalized: r0:TDELIM( - ),TSWAP
#
DISCID=6806b70a
DTITLE=Country Gospel Collection - Will the Circle be Unbroken - Vol. 1
DYEAR=1900
DGENRE=
TTITLE0=Mel McDaniel - When the Saints Go Marching In
TTITLE1=Donna Fargo - You Can't be a Beacon
TTITLE2=Willie Nelson - Dreaming of a Little Cabin
TTITLE3=Lacy J. Dalton - Life's Railway to Heaven
TTITLE4=Ace Cannon - I saw the Light
TTITLE5=Ray Price - The Old Rugged Cross
TTITLE6=Jeanne Pruett - Uncloudy Day
TTITLE7=Slim Whitman - I'll Fly Away
TTITLE8=Sandy Posey - Put your Hand in the Hand
TTITLE9=The Jordanaires - Will the Circle Be Unbroken
EXTD=
EXTT0=
EXTT1=
EXTT2=
EXTT3=
EXTT4=
EXTT5=
EXTT6=
EXTT7=
EXTT8=
EXTT9=
PLAYORDER=
